<?xml version="1.0" encoding="UTF-8"?>
<svg width="1267px" height="257px" viewBox="0 0 1267 257" version="1.1" xmlns="http://www.w3.org/2000/svg" xmlns:xlink="http://www.w3.org/1999/xlink">
    <!-- Generator: Sketch 51.3 (57544) - http://www.bohemiancoding.com/sketch -->
    <title>Browsertrix-Horizontal-no-padding</title>
    <desc>Created with Sketch.</desc>
    <defs></defs>
    <g id="Browsertrix-Horizontal-no-padding" stroke="none" stroke-width="1" fill="none" fill-rule="evenodd">
        <g id="C4-Logo" transform="translate(2.000000, 5.000000)" fill="#000000">
            <path d="M88,142.596779 L88,187.400287 C129.247836,195.322678 179.850046,199.721014 233.177384,199.721014 C286.783114,199.721014 337.635191,195.276635 379,187.275923 L379,142.796048 C432.052464,153.427171 466,169.72673 466,188 C466,220.032515 361.682347,246 233,246 C104.317653,246 0,220.032515 0,188 C0,169.612176 34.3745016,153.222886 88,142.596779 Z" id="Combined-Shape"></path>
            <path d="M353,0 L353,155.25055 C317.606088,160.636359 276.364698,163.605072 233.177384,163.605072 C190.252242,163.605072 149.249471,160.672294 114,155.348368 L114,0 L353,0 Z M187,13 L187,30 L337,30 L337,13 L187,13 Z M131,13 L131,30 L149,30 L149,13 L131,13 Z M159,13 L159,30 L177,30 L177,13 L159,13 Z" id="Combined-Shape" fill-rule="nonzero"></path>
        </g>
        <path d="M569.535156,63.4082031 L599.408203,63.4082031 C604.831407,63.4082031 609.878557,64.2512937 614.549805,65.9375 C619.221052,67.6237063 623.026352,70.3238747 625.96582,74.0380859 C628.905288,77.7522972 630.375,82.5032263 630.375,88.2910156 C630.375,92.9850495 629.292654,97.0637848 627.12793,100.527344 C624.963205,103.990903 622.149106,106.702464 618.685547,108.662109 C623.561873,110.712901 627.515284,113.902973 630.545898,118.232422 C633.576513,122.561871 635.091797,127.552055 635.091797,133.203125 C635.091797,139.127634 633.656264,144.095032 630.785156,148.105469 C627.914048,152.115905 624.120141,155.100902 619.40332,157.060547 C614.6865,159.020192 609.570991,160 604.056641,160 L569.535156,160 L569.535156,63.4082031 Z M600.228516,104.21875 C605.150415,104.21875 609.160792,103.045259 612.259766,100.698242 C615.358739,98.3512252 616.908203,94.6256766 616.908203,89.5214844 C616.908203,84.7363042 615.32456,81.2727972 612.157227,79.1308594 C608.989893,76.9889216 604.80862,75.9179688 599.613281,75.9179688 L583.34375,75.9179688 L583.34375,104.21875 L600.228516,104.21875 Z M604.330078,146.943359 C609.525417,146.943359 613.672511,145.758475 616.771484,143.388672 C619.870458,141.018868 621.419922,137.213568 621.419922,131.972656 C621.419922,126.868464 619.813493,122.994805 616.600586,120.351562 C613.387679,117.70832 609.229192,116.386719 604.125,116.386719 L583.34375,116.386719 L583.34375,146.943359 L604.330078,146.943359 Z M652.728516,91.7089844 L665.716797,91.7089844 L665.716797,103.535156 C667.311857,99.4335732 669.886701,96.1979285 673.441406,93.828125 C676.996112,91.4583215 680.846984,90.2734375 684.994141,90.2734375 C687.272798,90.2734375 689.426097,90.6380172 691.454102,91.3671875 C693.482106,92.0963578 695.225253,93.1217382 696.683594,94.4433594 L690.873047,105.585938 C688.639963,103.899731 685.99676,103.056641 682.943359,103.056641 C679.61652,103.056641 676.642917,104.013662 674.022461,105.927734 C671.402005,107.841806 669.339851,110.690085 667.835938,114.472656 C666.332024,118.255227 665.580078,122.880832 665.580078,128.349609 L665.580078,160 L652.728516,160 L652.728516,91.7089844 Z M717.772461,156.547852 C712.691055,153.334945 708.737644,149.005561 705.912109,143.55957 C703.086574,138.11358 701.673828,132.15498 701.673828,125.683594 C701.673828,119.212207 703.075181,113.276394 705.87793,107.875977 C708.680678,102.475559 712.634089,98.1917476 717.738281,95.0244141 C722.842473,91.8570805 728.675748,90.2734375 735.238281,90.2734375 C741.755241,90.2734375 747.577123,91.8570805 752.704102,95.0244141 C757.83108,98.1917476 761.818671,102.486952 764.666992,107.910156 C767.515314,113.33336 768.939453,119.25778 768.939453,125.683594 C768.939453,132.15498 767.515314,138.11358 764.666992,143.55957 C761.818671,149.005561 757.83108,153.334945 752.704102,156.547852 C747.577123,159.760758 741.755241,161.367188 735.238281,161.367188 C728.675748,161.367188 722.853867,159.760758 717.772461,156.547852 Z M746.483398,146.738281 C749.468439,144.459624 751.678704,141.474628 753.114258,137.783203 C754.549812,134.091778 755.267578,130.058616 755.267578,125.683594 C755.267578,121.308572 754.549812,117.298195 753.114258,113.652344 C751.678704,110.006492 749.468439,107.078462 746.483398,104.868164 C743.498357,102.657867 739.772809,101.552734 735.306641,101.552734 C730.840472,101.552734 727.114924,102.657867 724.129883,104.868164 C721.144842,107.078462 718.934577,110.006492 717.499023,113.652344 C716.063469,117.298195 715.345703,121.308572 715.345703,125.683594 C715.345703,130.058616 716.063469,134.103172 717.499023,137.817383 C718.934577,141.531594 721.156235,144.51659 724.164062,146.772461 C727.17189,149.028332 730.886046,150.15625 735.306641,150.15625 C739.772809,150.15625 743.498357,149.016938 746.483398,146.738281 Z M775.84375,91.7089844 L789.925781,91.7089844 L802.845703,140.859375 L817.201172,91.7089844 L828.822266,91.7089844 L843.177734,140.722656 L856.097656,91.7089844 L870.179688,91.7089844 L850.150391,160 L837.845703,160 L823.080078,109.550781 L808.177734,160.136719 L795.873047,160.136719 L775.84375,91.7089844 Z M890.584961,158.974609 C886.87075,157.379549 883.737643,155.214857 881.185547,152.480469 C878.633451,149.74608 876.810552,146.715511 875.716797,143.388672 L886.517578,138.330078 C887.748053,141.884783 889.63931,144.790028 892.191406,147.045898 C894.743502,149.301769 898.138651,150.429688 902.376953,150.429688 C906.159524,150.429688 909.155913,149.518238 911.366211,147.695312 C913.576508,145.872387 914.681641,143.525405 914.681641,140.654297 C914.681641,138.557932 914.043626,136.826179 912.767578,135.458984 C911.49153,134.09179 909.885101,133.009444 907.948242,132.211914 C906.011384,131.414384 903.334001,130.514328 899.916016,129.511719 C895.540994,128.235671 891.986342,126.971035 889.251953,125.717773 C886.517564,124.464512 884.181976,122.596041 882.245117,120.112305 C880.308259,117.628568 879.339844,114.358744 879.339844,110.302734 C879.339844,106.064432 880.399403,102.430028 882.518555,99.3994141 C884.637706,96.3688 887.474592,94.0901769 891.029297,92.5634766 C894.584002,91.0367762 898.480448,90.2734375 902.71875,90.2734375 C908.141954,90.2734375 912.915669,91.5266802 917.040039,94.0332031 C921.164409,96.5397261 924.411446,100.026019 926.78125,104.492188 L916.732422,110.029297 C913.542302,103.876922 908.711621,100.800781 902.240234,100.800781 C899.095687,100.800781 896.566416,101.529941 894.652344,102.988281 C892.738272,104.446622 891.78125,106.315093 891.78125,108.59375 C891.78125,110.325529 892.373692,111.783848 893.558594,112.96875 C894.743496,114.153652 896.2246,115.09928 898.001953,115.805664 C899.779306,116.512048 902.285791,117.366531 905.521484,118.369141 C910.169945,119.781908 913.952459,121.171868 916.869141,122.539062 C919.785822,123.906257 922.3037,125.968411 924.422852,128.725586 C926.542003,131.482761 927.601562,135.094379 927.601562,139.560547 C927.601562,144.300154 926.428072,148.31053 924.081055,151.591797 C921.734038,154.873063 918.657897,157.322583 914.852539,158.94043 C911.047181,160.558276 907.002626,161.367188 902.71875,161.367188 C898.343728,161.367188 894.299172,160.569669 890.584961,158.974609 Z M952.655273,156.376953 C947.75616,153.186833 944.087577,148.948594 941.649414,143.662109 C939.211251,138.375625 937.992188,132.54235 937.992188,126.162109 C937.992188,119.918589 939.165678,114.085314 941.512695,108.662109 C943.859712,103.238905 947.402971,98.8639489 952.142578,95.5371094 C956.882185,92.2102698 962.647101,90.546875 969.4375,90.546875 C976.638057,90.546875 982.494118,92.1988767 987.005859,95.5029297 C991.517601,98.8069827 994.753245,103.022435 996.712891,108.149414 C998.672536,113.276393 999.652344,118.688123 999.652344,124.384766 C999.652344,126.800142 999.515626,128.736972 999.242188,130.195312 L952.005859,130.195312 C952.324871,135.891956 954.045232,140.506167 957.166992,144.038086 C960.288753,147.570005 964.766247,149.335938 970.599609,149.335938 C974.291034,149.335938 977.583644,148.777675 980.477539,147.661133 C983.371434,146.544591 986.02603,144.664727 988.441406,142.021484 L997.601562,149.746094 C993.864565,153.665384 989.820009,156.547842 985.467773,158.393555 C981.115538,160.239267 976.159533,161.162109 970.599609,161.162109 C963.535772,161.162109 957.554386,159.567073 952.655273,156.376953 Z M986.800781,120.146484 C986.481769,114.586561 984.87534,110.097673 981.981445,106.679688 C979.087551,103.261702 974.883491,101.552734 969.369141,101.552734 C964.082656,101.552734 959.992527,103.284488 957.098633,106.748047 C954.204738,110.211606 952.507164,114.677707 952.005859,120.146484 L986.800781,120.146484 Z M1015.58008,91.7089844 L1028.56836,91.7089844 L1028.56836,103.535156 C1030.16342,99.4335732 1032.73826,96.1979285 1036.29297,93.828125 C1039.84767,91.4583215 1043.69855,90.2734375 1047.8457,90.2734375 C1050.12436,90.2734375 1052.27766,90.6380172 1054.30566,91.3671875 C1056.33367,92.0963578 1058.07682,93.1217382 1059.53516,94.4433594 L1053.72461,105.585938 C1051.49153,103.899731 1048.84832,103.056641 1045.79492,103.056641 C1042.46808,103.056641 1039.49448,104.013662 1036.87402,105.927734 C1034.25357,107.841806 1032.19141,110.690085 1030.6875,114.472656 C1029.18359,118.255227 1028.43164,122.880832 1028.43164,128.349609 L1028.43164,160 L1015.58008,160 L1015.58008,91.7089844 Z M1077.95801,156.103516 C1074.79067,152.594383 1073.20703,147.740916 1073.20703,141.542969 L1073.20703,102.714844 L1062.20117,102.714844 L1062.20117,91.7089844 L1073.34375,91.7089844 L1073.34375,75.5761719 L1086.33203,64.9121094 L1086.33203,91.7089844 L1103.62695,91.7089844 L1103.62695,102.714844 L1086.33203,102.714844 L1086.33203,140.175781 C1086.33203,143.548194 1087.08398,146.031893 1088.58789,147.626953 C1090.0918,149.222013 1092.07421,150.019531 1094.53516,150.019531 C1095.85678,150.019531 1097.23534,149.814455 1098.6709,149.404297 C1100.10645,148.994139 1101.43945,148.492842 1102.66992,147.900391 L1102.66992,159.658203 C1101.57617,160.113935 1100.04949,160.512694 1098.08984,160.854492 C1096.1302,161.196291 1094.10222,161.367188 1092.00586,161.367188 C1085.80791,161.367188 1081.12534,159.612648 1077.95801,156.103516 Z M1119.21289,91.7089844 L1132.20117,91.7089844 L1132.20117,103.535156 C1133.79623,99.4335732 1136.37108,96.1979285 1139.92578,93.828125 C1143.48049,91.4583215 1147.33136,90.2734375 1151.47852,90.2734375 C1153.75717,90.2734375 1155.91047,90.6380172 1157.93848,91.3671875 C1159.96648,92.0963578 1161.70963,93.1217382 1163.16797,94.4433594 L1157.35742,105.585938 C1155.12434,103.899731 1152.48114,103.056641 1149.42773,103.056641 C1146.10089,103.056641 1143.12729,104.013662 1140.50684,105.927734 C1137.88638,107.841806 1135.82423,110.690085 1134.32031,114.472656 C1132.8164,118.255227 1132.06445,122.880832 1132.06445,128.349609 L1132.06445,160 L1119.21289,160 L1119.21289,91.7089844 Z M1173.69531,63.4082031 L1187.98242,63.4082031 L1187.98242,77.6269531 L1173.69531,77.6269531 L1173.69531,63.4082031 Z M1174.24219,91.7089844 L1187.43555,91.7089844 L1187.43555,160 L1174.24219,160 L1174.24219,91.7089844 Z M1223.46094,125.546875 L1200.21875,91.7089844 L1216.35156,91.7089844 L1231.45898,115.703125 L1246.63477,91.7089844 L1262.63086,91.7089844 L1239.52539,125.546875 L1262.63086,160 L1246.63477,160 L1231.45898,135.458984 L1216.35156,160 L1200.21875,160 L1223.46094,125.546875 Z" id="Browsertrix" fill="#000000"></path>
    </g>
</svg>